<svg width="84" height="47" viewBox="0 0 84 47" fill="none" xmlns="http://www.w3.org/2000/svg">
<path d="M49.127 46.08C48.5297 46.08 48.231 45.8667 48.231 45.44C48.231 44.9707 48.6577 44.672 49.511 44.544L50.791 44.352C51.7297 44.224 52.3697 44.0107 52.711 43.712C53.095 43.3707 53.3723 42.752 53.543 41.856L62.247 4.224C62.4177 3.49867 62.439 2.944 62.311 2.56C62.183 2.176 61.6283 1.89867 60.647 1.728L59.367 1.472C58.8123 1.344 58.535 1.10933 58.535 0.768002C58.535 0.256001 58.919 0 59.687 0H72.167C75.7083 0 78.4177 0.96 80.295 2.88C82.1723 4.8 83.111 7.21067 83.111 10.112C83.111 12.8 82.407 15.296 80.999 17.6C79.6337 19.8613 77.7137 21.696 75.239 23.104C72.807 24.512 69.9483 25.216 66.663 25.216H62.887C62.2043 25.216 61.7563 25.5787 61.543 26.304L57.959 41.6C57.7457 42.5387 57.7883 43.1787 58.087 43.52C58.4283 43.8613 59.1323 44.096 60.199 44.224L63.271 44.608C63.655 44.6507 63.847 44.864 63.847 45.248C63.847 45.8027 63.463 46.08 62.695 46.08H49.127ZM63.015 20.096C62.759 21.2053 62.8657 22.08 63.335 22.72C63.847 23.3173 64.8923 23.616 66.471 23.616C68.6043 23.616 70.4177 23.168 71.911 22.272C73.447 21.376 74.6843 20.224 75.623 18.816C76.6043 17.3653 77.3083 15.8293 77.735 14.208C78.2043 12.544 78.439 10.9653 78.439 9.472C78.439 7.12533 77.8203 5.22667 76.583 3.776C75.3457 2.32533 73.5323 1.6 71.143 1.6C68.5403 1.6 67.047 2.45333 66.663 4.16L63.015 20.096Z" fill="#111111"/>
<path d="M41.125 46.08C40.485 46.08 40.165 45.8454 40.165 45.376C40.165 44.992 40.4424 44.736 40.997 44.608L41.765 44.48C42.8317 44.3094 43.5144 44.0534 43.813 43.712C44.1117 43.328 44.261 42.688 44.261 41.792V20.288C44.261 19.52 44.133 19.008 43.877 18.752C43.6637 18.4533 43.2584 18.2614 42.661 18.176L41.317 17.984C40.7624 17.9413 40.485 17.7067 40.485 17.28C40.485 16.9387 40.8264 16.704 41.509 16.576C42.8317 16.3627 43.8984 16.0214 44.709 15.552C45.5197 15.0827 46.309 14.5067 47.077 13.824C47.461 13.44 47.781 13.248 48.037 13.248C48.421 13.248 48.613 13.504 48.613 14.016V41.792C48.613 42.688 48.741 43.328 48.997 43.712C49.253 44.096 49.7437 44.3307 50.469 44.416L52.069 44.608C52.5384 44.6934 52.773 44.928 52.773 45.312C52.773 45.824 52.453 46.08 51.813 46.08H41.125Z" fill="#111111"/>
<path d="M49.197 9.40002C49.837 10.04 50.605 10.36 51.501 10.36C52.397 10.36 53.1437 10.04 53.741 9.40002C54.3383 8.76002 54.637 7.94935 54.637 6.96801C54.637 5.98668 54.3383 5.19735 53.741 4.60001C53.1437 3.96001 52.397 3.64001 51.501 3.64001C50.605 3.64001 49.837 3.96001 49.197 4.60001C48.5997 5.19735 48.301 5.98668 48.301 6.96801C48.301 7.94935 48.5997 8.76002 49.197 9.40002Z" fill="#111111"/>
<path d="M29.648 46.72C29.4773 46.72 29.3067 46.656 29.136 46.528C28.9653 46.4 28.8373 46.1227 28.752 45.696L23.824 25.856C23.7813 25.5147 23.6533 25.3653 23.44 25.408C23.2267 25.408 23.0773 25.5573 22.992 25.856L17.488 45.696C17.36 46.1227 17.2107 46.4 17.04 46.528C16.912 46.656 16.7627 46.72 16.592 46.72C16.4213 46.72 16.2293 46.656 16.016 46.528C15.8453 46.4 15.7173 46.1227 15.632 45.696L5.52 5.12C5.22133 3.92533 4.88 3.09333 4.496 2.624C4.15467 2.15467 3.55733 1.83467 2.704 1.664L1.744 1.472C1.14667 1.344 0.848 1.06667 0.848 0.639999C0.848 0.213333 1.168 0 1.808 0H12.112C12.7093 0 13.008 0.234666 13.008 0.703999C13.008 1.088 12.688 1.344 12.048 1.472L11.344 1.6C10.6187 1.728 10.1493 1.984 9.936 2.368C9.76533 2.70933 9.78667 3.34933 10 4.288L17.552 35.52C17.6373 35.8187 17.7653 35.968 17.936 35.968C18.1493 35.968 18.2987 35.8187 18.384 35.52L21.264 25.088C21.7333 23.4667 21.968 21.9733 21.968 20.608C21.968 19.2427 21.7547 17.728 21.328 16.064L18.64 5.12C18.3413 3.92533 18.0427 3.072 17.744 2.56C17.488 2.048 17.1253 1.74933 16.656 1.664L15.696 1.472C15.0987 1.344 14.8 1.06667 14.8 0.639999C14.8 0.213333 15.12 0 15.76 0H24.528C25.1253 0 25.424 0.234666 25.424 0.703999C25.424 1.088 25.104 1.344 24.464 1.472L23.76 1.6C23.2053 1.68533 22.864 1.92 22.736 2.304C22.6507 2.688 22.7147 3.34933 22.928 4.288L25.104 13.44C25.1893 13.7387 25.3173 13.888 25.488 13.888C25.7013 13.888 25.8507 13.7387 25.936 13.44L28.24 5.632C28.7093 4.01067 28.88 2.944 28.752 2.432C28.6667 1.92 28.432 1.64267 28.048 1.6L27.344 1.472C26.704 1.344 26.384 1.088 26.384 0.703999C26.384 0.234666 26.6827 0 27.28 0H33.36C34.0853 0 34.448 0.234666 34.448 0.703999C34.448 1.13066 34.0853 1.38667 33.36 1.472L32.656 1.536C32.1013 1.57867 31.632 1.92 31.248 2.56C30.9067 3.2 30.5227 4.24533 30.096 5.696L27.664 14.08C27.1947 15.6587 26.9387 17.152 26.896 18.56C26.896 19.9253 27.088 21.44 27.472 23.104L30.352 35.136C30.4373 35.4347 30.5653 35.584 30.736 35.584C30.9493 35.584 31.0773 35.4347 31.12 35.136L38.48 5.632C39.0773 3.15733 38.6933 1.81333 37.328 1.6L36.624 1.472C35.984 1.344 35.664 1.06667 35.664 0.639999C35.664 0.213333 35.9627 0 36.56 0H43.728C44.4533 0 44.816 0.234666 44.816 0.703999C44.816 1.13066 44.4533 1.38667 43.728 1.472L43.024 1.536C42.4693 1.57867 41.9787 1.92 41.552 2.56C41.168 3.15733 40.8053 4.20267 40.464 5.696L30.544 45.696C30.4587 46.1227 30.3307 46.4 30.16 46.528C29.9893 46.656 29.8187 46.72 29.648 46.72Z" fill="#111111"/>
</svg>
