<svg width="280" height="280" viewBox="0 0 280 280" fill="none" xmlns="http://www.w3.org/2000/svg">
<rect width="280" height="280" fill="black"/>
<rect x="140" y="92" width="12" height="12" fill="white"/>
<rect x="140" y="152" width="12" height="12" fill="white"/>
<rect x="92" y="92" width="12" height="12" fill="white"/>
<rect x="140" y="116" width="12" height="12" fill="white"/>
<rect x="140" y="176" width="12" height="12" fill="white"/>
<rect x="116" y="176" width="12" height="12" fill="white"/>
<rect x="116" y="152" width="12" height="12" fill="white"/>
<rect x="92" y="116" width="12" height="12" fill="white"/>
<rect x="164" y="92" width="12" height="12" fill="white"/>
<rect x="164" y="140" width="12" height="12" fill="white"/>
<rect x="116" y="92" width="12" height="12" fill="white"/>
<rect x="164" y="116" width="12" height="12" fill="white"/>
<rect x="164" y="164" width="12" height="12" fill="white"/>
<rect x="116" y="116" width="12" height="12" fill="white"/>
<rect x="140" y="104" width="12" height="12" fill="white"/>
<rect x="140" y="164" width="12" height="12" fill="white"/>
<rect x="128" y="164" width="12" height="12" fill="white"/>
<rect x="92" y="104" width="12" height="12" fill="white"/>
<rect x="140" y="128" width="12" height="12" fill="white"/>
<rect x="128" y="140" width="12" height="12" fill="white"/>
<rect x="92" y="140" width="12" height="12" fill="white"/>
<rect x="164" y="104" width="12" height="12" fill="white"/>
<rect x="164" y="152" width="12" height="12" fill="white"/>
<rect x="116" y="104" width="12" height="12" fill="white"/>
<rect x="164" y="128" width="12" height="12" fill="white"/>
<rect x="164" y="176" width="12" height="12" fill="white"/>
<rect x="116" y="140" width="12" height="12" fill="white"/>
<rect x="104" y="152" width="12" height="12" fill="white"/>
<rect x="92" y="164" width="12" height="12" fill="white"/>
<rect x="104" y="176" width="12" height="12" fill="white"/>
<rect x="152" y="92" width="12" height="12" fill="white"/>
<rect x="104" y="92" width="12" height="12" fill="white"/>
<rect x="152" y="116" width="12" height="12" fill="white"/>
<rect x="104" y="116" width="12" height="12" fill="white"/>
<rect x="176" y="92" width="12" height="12" fill="white"/>
<rect x="176" y="140" width="12" height="12" fill="white"/>
<rect x="128" y="92" width="12" height="12" fill="white"/>
<rect x="176" y="116" width="12" height="12" fill="white"/>
<rect x="176" y="164" width="12" height="12" fill="white"/>
<rect x="128" y="116" width="12" height="12" fill="white"/>
<rect x="152" y="104" width="12" height="12" fill="white"/>
<rect x="152" y="164" width="12" height="12" fill="white"/>
<rect x="104" y="104" width="12" height="12" fill="white"/>
<rect x="152" y="128" width="12" height="12" fill="white"/>
<rect x="152" y="140" width="12" height="12" fill="white"/>
<rect x="104" y="128" width="12" height="12" fill="white"/>
<rect x="176" y="104" width="12" height="12" fill="white"/>
<rect x="176" y="152" width="12" height="12" fill="white"/>
<rect x="128" y="104" width="12" height="12" fill="white"/>
<rect x="176" y="128" width="12" height="12" fill="white"/>
<rect x="176" y="176" width="12" height="12" fill="white"/>
<rect x="128" y="128" width="12" height="12" fill="white"/>
</svg>
