<svg width="2000" height="2000" viewBox="0 0 2000 2000" fill="none" xmlns="http://www.w3.org/2000/svg">
<rect width="2000" height="2000" fill="black"/>
<path fill-rule="evenodd" clip-rule="evenodd" d="M675.196 655H612.043C602.078 655 594 663.078 594 673.043V736.196V817.391V898.587V961.739C594 971.704 602.078 979.783 612.043 979.783H675.196H756.391H819.543C829.509 979.783 837.587 971.704 837.587 961.739V898.587V817.391V754.239C837.587 744.274 829.509 736.196 819.543 736.196H756.391L756.391 673.043C756.391 663.078 748.313 655 738.348 655H675.196ZM756.391 736.196V817.391L756.391 880.543C756.391 890.509 748.313 898.587 738.348 898.587L693.239 898.587C683.274 898.587 675.196 890.509 675.196 880.544V817.391V754.239C675.196 744.274 683.274 736.196 693.239 736.196L756.391 736.196ZM959.38 655H896.228C886.263 655 878.185 663.078 878.185 673.043V736.196V817.391V898.587V961.739C878.185 971.704 886.263 979.783 896.228 979.783H959.38H1040.58H1103.73C1113.69 979.783 1121.77 971.704 1121.77 961.739V916.63C1121.77 906.665 1113.69 898.587 1103.73 898.587H1040.58L977.424 898.587C967.459 898.587 959.38 890.509 959.38 880.544V817.391V754.239C959.38 744.274 967.459 736.196 977.424 736.196H1022.53C1032.5 736.196 1040.58 744.274 1040.58 754.239L1040.58 799.348C1040.58 809.313 1048.65 817.391 1058.62 817.391H1103.73C1113.69 817.391 1121.77 809.313 1121.77 799.348V736.196V673.043C1121.77 663.078 1113.69 655 1103.73 655H1040.58H959.38ZM594 1038.42C594 1028.46 602.078 1020.38 612.043 1020.38H675.196H756.391H819.543C829.509 1020.38 837.587 1028.46 837.587 1038.42V1101.58V1164.73C837.587 1174.69 829.509 1182.77 819.543 1182.77H774.435C764.47 1182.77 756.391 1174.69 756.391 1164.73L756.391 1119.62C756.391 1109.65 748.313 1101.58 738.348 1101.58H693.239C683.274 1101.58 675.196 1109.65 675.196 1119.62V1182.77V1245.92C675.196 1255.89 683.274 1263.97 693.239 1263.97L756.391 1263.97H819.543C829.509 1263.97 837.587 1272.05 837.587 1282.01V1327.12C837.587 1337.08 829.509 1345.16 819.543 1345.16H756.391H675.196H612.043C602.078 1345.16 594 1337.08 594 1327.12V1263.97V1182.77V1101.58V1038.42ZM959.38 1020.38H896.228C886.263 1020.38 878.185 1028.46 878.185 1038.42V1083.53C878.185 1093.5 886.263 1101.58 896.228 1101.58H959.38H1022.53C1032.5 1101.58 1040.58 1109.65 1040.58 1119.62V1182.77V1263.97V1327.12C1040.58 1337.08 1048.65 1345.16 1058.62 1345.16H1103.73C1113.69 1345.16 1121.77 1337.08 1121.77 1327.12V1263.97V1182.77V1101.58V1038.42C1121.77 1028.46 1113.69 1020.38 1103.73 1020.38H1040.58H959.38ZM1162.37 1038.42C1162.37 1028.46 1170.45 1020.38 1180.41 1020.38H1243.57H1324.76H1387.91C1397.88 1020.38 1405.96 1028.46 1405.96 1038.42V1083.53C1405.96 1093.5 1397.88 1101.58 1387.91 1101.58H1324.76H1261.61C1251.64 1101.58 1243.57 1109.65 1243.57 1119.62V1182.77V1245.92C1243.57 1255.89 1251.64 1263.97 1261.61 1263.97L1306.72 1263.97C1316.68 1263.97 1324.76 1255.89 1324.76 1245.92V1200.82C1324.76 1190.85 1332.84 1182.77 1342.8 1182.77H1387.91C1397.88 1182.77 1405.96 1190.85 1405.96 1200.82V1263.97V1327.12C1405.96 1337.08 1397.88 1345.16 1387.91 1345.16H1324.76H1243.57H1180.41C1170.45 1345.16 1162.37 1337.08 1162.37 1327.12V1263.97V1182.77V1101.58V1038.42ZM1243.57 655H1180.41C1170.45 655 1162.37 663.078 1162.37 673.043V736.196V799.348C1162.37 809.313 1170.45 817.391 1180.41 817.391H1225.52C1235.49 817.391 1243.57 809.313 1243.57 799.348V754.239C1243.57 744.274 1251.64 736.196 1261.61 736.196H1324.76H1387.91C1397.88 736.196 1405.96 728.117 1405.96 718.152V673.043C1405.96 663.078 1397.88 655 1387.91 655H1324.76H1243.57ZM1405.96 835.435C1405.96 825.47 1397.88 817.391 1387.91 817.391H1342.8C1332.84 817.391 1324.76 825.47 1324.76 835.435V880.543C1324.76 890.509 1316.68 898.587 1306.72 898.587L1243.57 898.587H1180.41C1170.45 898.587 1162.37 906.665 1162.37 916.63V961.739C1162.37 971.704 1170.45 979.783 1180.41 979.783H1243.57H1324.76H1387.91C1397.88 979.783 1405.96 971.704 1405.96 961.739V898.587V835.435ZM959.38 1200.82C959.38 1190.85 951.302 1182.77 941.337 1182.77H896.228C886.263 1182.77 878.185 1190.85 878.185 1200.82V1263.97V1327.12C878.185 1337.08 886.263 1345.16 896.228 1345.16H941.337C951.302 1345.16 959.38 1337.08 959.38 1327.12V1263.97V1200.82Z" fill="#D9D9D9"/>
</svg>
